<svg class="lds-spinner" width="149px"  height="149px"  xmlns="http://www.w3.org/2000/svg" xmlns:xlink="http://www.w3.org/1999/xlink" viewBox="0 0 100 100" preserveAspectRatio="xMidYMid" style="background: none;"><g transform="rotate(0 50 50)">
  <rect x="46.5" y="17" rx="18.6" ry="6.8" width="7" height="16" fill="#db4437">
    <animate attributeName="opacity" values="1;0" times="0;1" dur="1.5s" begin="-1.3928571428571428s" repeatCount="indefinite"></animate>
  </rect>
</g><g transform="rotate(25.714285714285715 50 50)">
  <rect x="46.5" y="17" rx="18.6" ry="6.8" width="7" height="16" fill="#db4437">
    <animate attributeName="opacity" values="1;0" times="0;1" dur="1.5s" begin="-1.2857142857142858s" repeatCount="indefinite"></animate>
  </rect>
</g><g transform="rotate(51.42857142857143 50 50)">
  <rect x="46.5" y="17" rx="18.6" ry="6.8" width="7" height="16" fill="#db4437">
    <animate attributeName="opacity" values="1;0" times="0;1" dur="1.5s" begin="-1.1785714285714286s" repeatCount="indefinite"></animate>
  </rect>
</g><g transform="rotate(77.14285714285714 50 50)">
  <rect x="46.5" y="17" rx="18.6" ry="6.8" width="7" height="16" fill="#db4437">
    <animate attributeName="opacity" values="1;0" times="0;1" dur="1.5s" begin="-1.0714285714285714s" repeatCount="indefinite"></animate>
  </rect>
</g><g transform="rotate(102.85714285714286 50 50)">
  <rect x="46.5" y="17" rx="18.6" ry="6.8" width="7" height="16" fill="#db4437">
    <animate attributeName="opacity" values="1;0" times="0;1" dur="1.5s" begin="-0.9642857142857143s" repeatCount="indefinite"></animate>
  </rect>
</g><g transform="rotate(128.57142857142858 50 50)">
  <rect x="46.5" y="17" rx="18.6" ry="6.8" width="7" height="16" fill="#db4437">
    <animate attributeName="opacity" values="1;0" times="0;1" dur="1.5s" begin="-0.8571428571428571s" repeatCount="indefinite"></animate>
  </rect>
</g><g transform="rotate(154.28571428571428 50 50)">
  <rect x="46.5" y="17" rx="18.6" ry="6.8" width="7" height="16" fill="#db4437">
    <animate attributeName="opacity" values="1;0" times="0;1" dur="1.5s" begin="-0.75s" repeatCount="indefinite"></animate>
  </rect>
</g><g transform="rotate(180 50 50)">
  <rect x="46.5" y="17" rx="18.6" ry="6.8" width="7" height="16" fill="#db4437">
    <animate attributeName="opacity" values="1;0" times="0;1" dur="1.5s" begin="-0.6428571428571429s" repeatCount="indefinite"></animate>
  </rect>
</g><g transform="rotate(205.71428571428572 50 50)">
  <rect x="46.5" y="17" rx="18.6" ry="6.8" width="7" height="16" fill="#db4437">
    <animate attributeName="opacity" values="1;0" times="0;1" dur="1.5s" begin="-0.5357142857142857s" repeatCount="indefinite"></animate>
  </rect>
</g><g transform="rotate(231.42857142857142 50 50)">
  <rect x="46.5" y="17" rx="18.6" ry="6.8" width="7" height="16" fill="#db4437">
    <animate attributeName="opacity" values="1;0" times="0;1" dur="1.5s" begin="-0.42857142857142855s" repeatCount="indefinite"></animate>
  </rect>
</g><g transform="rotate(257.14285714285717 50 50)">
  <rect x="46.5" y="17" rx="18.6" ry="6.8" width="7" height="16" fill="#db4437">
    <animate attributeName="opacity" values="1;0" times="0;1" dur="1.5s" begin="-0.32142857142857145s" repeatCount="indefinite"></animate>
  </rect>
</g><g transform="rotate(282.85714285714283 50 50)">
  <rect x="46.5" y="17" rx="18.6" ry="6.8" width="7" height="16" fill="#db4437">
    <animate attributeName="opacity" values="1;0" times="0;1" dur="1.5s" begin="-0.21428571428571427s" repeatCount="indefinite"></animate>
  </rect>
</g><g transform="rotate(308.57142857142856 50 50)">
  <rect x="46.5" y="17" rx="18.6" ry="6.8" width="7" height="16" fill="#db4437">
    <animate attributeName="opacity" values="1;0" times="0;1" dur="1.5s" begin="-0.10714285714285714s" repeatCount="indefinite"></animate>
  </rect>
</g><g transform="rotate(334.2857142857143 50 50)">
  <rect x="46.5" y="17" rx="18.6" ry="6.8" width="7" height="16" fill="#db4437">
    <animate attributeName="opacity" values="1;0" times="0;1" dur="1.5s" begin="0s" repeatCount="indefinite"></animate>
  </rect>
</g></svg>